<mxfile host="app.diagrams.net" modified="2023-06-12T10:23:44.042Z" agent="5.0 (Windows NT 10.0; Win64; x64) AppleWebKit/537.36 (KHTML, like Gecko) Chrome/114.0.0.0 Safari/537.36" etag="KbMhHLXYMnb_YhaVwtNc" version="20.3.6" type="github">
  <diagram id="C5RBs43oDa-KdzZeNtuy" name="Page-1">
    <mxGraphModel dx="1422" dy="794" grid="1" gridSize="10" guides="1" tooltips="1" connect="1" arrows="1" fold="1" page="1" pageScale="1" pageWidth="827" pageHeight="1169" math="0" shadow="0">
      <root>
        <mxCell id="WIyWlLk6GJQsqaUBKTNV-0" />
        <mxCell id="WIyWlLk6GJQsqaUBKTNV-1" parent="WIyWlLk6GJQsqaUBKTNV-0" />
        <mxCell id="WIyWlLk6GJQsqaUBKTNV-2" value="" style="rounded=0;html=1;jettySize=auto;orthogonalLoop=1;fontSize=11;endArrow=block;endFill=0;endSize=8;strokeWidth=1;shadow=0;labelBackgroundColor=none;edgeStyle=orthogonalEdgeStyle;" parent="WIyWlLk6GJQsqaUBKTNV-1" source="WIyWlLk6GJQsqaUBKTNV-3" edge="1">
          <mxGeometry relative="1" as="geometry">
            <mxPoint x="414" y="170" as="targetPoint" />
          </mxGeometry>
        </mxCell>
        <mxCell id="WIyWlLk6GJQsqaUBKTNV-3" value="CBS&lt;br&gt;(Core Banking System)" style="rounded=1;whiteSpace=wrap;html=1;fontSize=12;glass=0;strokeWidth=1;shadow=0;" parent="WIyWlLk6GJQsqaUBKTNV-1" vertex="1">
          <mxGeometry x="341" y="40" width="146" height="70" as="geometry" />
        </mxCell>
        <mxCell id="8xc5v8LuwtwjrPXEEQ5e-2" value="" style="edgeStyle=orthogonalEdgeStyle;rounded=0;orthogonalLoop=1;jettySize=auto;html=1;" edge="1" parent="WIyWlLk6GJQsqaUBKTNV-1" source="8xc5v8LuwtwjrPXEEQ5e-0" target="WIyWlLk6GJQsqaUBKTNV-3">
          <mxGeometry relative="1" as="geometry" />
        </mxCell>
        <mxCell id="8xc5v8LuwtwjrPXEEQ5e-0" value="FPM&lt;br&gt;(Fusion Package Messanger)" style="shape=cylinder3;whiteSpace=wrap;html=1;boundedLbl=1;backgroundOutline=1;size=15;" vertex="1" parent="WIyWlLk6GJQsqaUBKTNV-1">
          <mxGeometry x="346" y="170" width="136" height="130" as="geometry" />
        </mxCell>
        <mxCell id="8xc5v8LuwtwjrPXEEQ5e-1" value="Conditions&lt;br&gt;If greater then 1M GBP Payment will be processed by swift&amp;nbsp;" style="rhombus;whiteSpace=wrap;html=1;" vertex="1" parent="WIyWlLk6GJQsqaUBKTNV-1">
          <mxGeometry x="309" y="360" width="210" height="190" as="geometry" />
        </mxCell>
        <mxCell id="8xc5v8LuwtwjrPXEEQ5e-4" value="" style="endArrow=classic;startArrow=classic;html=1;rounded=0;entryX=0.5;entryY=1;entryDx=0;entryDy=0;entryPerimeter=0;" edge="1" parent="WIyWlLk6GJQsqaUBKTNV-1" source="8xc5v8LuwtwjrPXEEQ5e-1" target="8xc5v8LuwtwjrPXEEQ5e-0">
          <mxGeometry width="50" height="50" relative="1" as="geometry">
            <mxPoint x="390" y="400" as="sourcePoint" />
            <mxPoint x="440" y="350" as="targetPoint" />
          </mxGeometry>
        </mxCell>
        <mxCell id="8xc5v8LuwtwjrPXEEQ5e-8" value="" style="endArrow=classic;startArrow=classic;html=1;rounded=0;entryX=0;entryY=0.5;entryDx=0;entryDy=0;" edge="1" parent="WIyWlLk6GJQsqaUBKTNV-1" target="8xc5v8LuwtwjrPXEEQ5e-1">
          <mxGeometry width="50" height="50" relative="1" as="geometry">
            <mxPoint x="170" y="455" as="sourcePoint" />
            <mxPoint x="280.71067811865476" y="455" as="targetPoint" />
          </mxGeometry>
        </mxCell>
        <mxCell id="8xc5v8LuwtwjrPXEEQ5e-9" value="Less than 1M" style="text;html=1;align=center;verticalAlign=middle;resizable=0;points=[];autosize=1;strokeColor=none;fillColor=none;" vertex="1" parent="WIyWlLk6GJQsqaUBKTNV-1">
          <mxGeometry x="190" y="430" width="100" height="30" as="geometry" />
        </mxCell>
        <mxCell id="8xc5v8LuwtwjrPXEEQ5e-11" value="Swift Payment Processor" style="shape=cylinder3;whiteSpace=wrap;html=1;boundedLbl=1;backgroundOutline=1;size=15;" vertex="1" parent="WIyWlLk6GJQsqaUBKTNV-1">
          <mxGeometry x="700" y="395" width="120" height="120" as="geometry" />
        </mxCell>
        <mxCell id="8xc5v8LuwtwjrPXEEQ5e-12" value="Greater than&amp;nbsp; or equal to1M" style="text;html=1;align=center;verticalAlign=middle;resizable=0;points=[];autosize=1;strokeColor=none;fillColor=none;" vertex="1" parent="WIyWlLk6GJQsqaUBKTNV-1">
          <mxGeometry x="530" y="420" width="170" height="30" as="geometry" />
        </mxCell>
        <mxCell id="8xc5v8LuwtwjrPXEEQ5e-14" value="" style="endArrow=classic;startArrow=classic;html=1;rounded=0;entryX=0;entryY=0.5;entryDx=0;entryDy=0;entryPerimeter=0;exitX=1;exitY=0.5;exitDx=0;exitDy=0;" edge="1" parent="WIyWlLk6GJQsqaUBKTNV-1" source="8xc5v8LuwtwjrPXEEQ5e-1" target="8xc5v8LuwtwjrPXEEQ5e-11">
          <mxGeometry width="50" height="50" relative="1" as="geometry">
            <mxPoint x="520" y="490" as="sourcePoint" />
            <mxPoint x="570" y="440" as="targetPoint" />
          </mxGeometry>
        </mxCell>
        <mxCell id="8xc5v8LuwtwjrPXEEQ5e-16" value="Ofac Watch&lt;br&gt;(User Authenticity Validation)" style="rhombus;whiteSpace=wrap;html=1;" vertex="1" parent="WIyWlLk6GJQsqaUBKTNV-1">
          <mxGeometry x="40" y="387.5" width="130" height="135" as="geometry" />
        </mxCell>
        <mxCell id="8xc5v8LuwtwjrPXEEQ5e-18" value="" style="endArrow=classic;startArrow=classic;html=1;rounded=0;exitX=0.5;exitY=0;exitDx=0;exitDy=0;exitPerimeter=0;" edge="1" parent="WIyWlLk6GJQsqaUBKTNV-1" source="8xc5v8LuwtwjrPXEEQ5e-19">
          <mxGeometry width="50" height="50" relative="1" as="geometry">
            <mxPoint x="414" y="660" as="sourcePoint" />
            <mxPoint x="414" y="550" as="targetPoint" />
          </mxGeometry>
        </mxCell>
        <mxCell id="8xc5v8LuwtwjrPXEEQ5e-19" value="" style="shape=cylinder3;whiteSpace=wrap;html=1;boundedLbl=1;backgroundOutline=1;size=15;" vertex="1" parent="WIyWlLk6GJQsqaUBKTNV-1">
          <mxGeometry x="307" y="640" width="214" height="180" as="geometry" />
        </mxCell>
        <mxCell id="8xc5v8LuwtwjrPXEEQ5e-20" value="after swift processing &lt;br&gt;will be sent to fpm" style="text;html=1;align=center;verticalAlign=middle;resizable=0;points=[];autosize=1;strokeColor=none;fillColor=none;" vertex="1" parent="WIyWlLk6GJQsqaUBKTNV-1">
          <mxGeometry x="552" y="455" width="140" height="40" as="geometry" />
        </mxCell>
        <mxCell id="8xc5v8LuwtwjrPXEEQ5e-21" value="&lt;h1&gt;Conversion Interface&lt;/h1&gt;&lt;p&gt;Message Conversion&amp;nbsp;&lt;/p&gt;" style="text;html=1;strokeColor=none;fillColor=none;spacing=5;spacingTop=-20;whiteSpace=wrap;overflow=hidden;rounded=0;" vertex="1" parent="WIyWlLk6GJQsqaUBKTNV-1">
          <mxGeometry x="346" y="690" width="149" height="100" as="geometry" />
        </mxCell>
        <mxCell id="8xc5v8LuwtwjrPXEEQ5e-23" value="" style="endArrow=classic;startArrow=classic;html=1;rounded=0;entryX=0.5;entryY=1;entryDx=0;entryDy=0;entryPerimeter=0;" edge="1" parent="WIyWlLk6GJQsqaUBKTNV-1" target="8xc5v8LuwtwjrPXEEQ5e-19">
          <mxGeometry width="50" height="50" relative="1" as="geometry">
            <mxPoint x="414" y="910" as="sourcePoint" />
            <mxPoint x="440" y="830" as="targetPoint" />
          </mxGeometry>
        </mxCell>
        <mxCell id="8xc5v8LuwtwjrPXEEQ5e-24" value="&lt;b&gt;FORM3&lt;/b&gt;" style="shape=cylinder3;whiteSpace=wrap;html=1;boundedLbl=1;backgroundOutline=1;size=15;" vertex="1" parent="WIyWlLk6GJQsqaUBKTNV-1">
          <mxGeometry x="376" y="910" width="76" height="100" as="geometry" />
        </mxCell>
        <mxCell id="8xc5v8LuwtwjrPXEEQ5e-25" value="&lt;b&gt;&lt;font style=&quot;font-size: 18px;&quot;&gt;Message Conversion&lt;/font&gt;&lt;/b&gt;" style="text;html=1;strokeColor=none;fillColor=none;align=center;verticalAlign=middle;whiteSpace=wrap;rounded=0;" vertex="1" parent="WIyWlLk6GJQsqaUBKTNV-1">
          <mxGeometry x="20" y="1080" width="200" height="30" as="geometry" />
        </mxCell>
        <mxCell id="8xc5v8LuwtwjrPXEEQ5e-27" value="" style="shape=cylinder3;whiteSpace=wrap;html=1;boundedLbl=1;backgroundOutline=1;size=15;" vertex="1" parent="WIyWlLk6GJQsqaUBKTNV-1">
          <mxGeometry x="312" y="1310" width="214" height="180" as="geometry" />
        </mxCell>
        <mxCell id="8xc5v8LuwtwjrPXEEQ5e-28" value="&lt;h1&gt;Conversion Interface&lt;/h1&gt;&lt;p&gt;Message Conversion&amp;nbsp;&lt;/p&gt;" style="text;html=1;strokeColor=none;fillColor=none;spacing=5;spacingTop=-20;whiteSpace=wrap;overflow=hidden;rounded=0;" vertex="1" parent="WIyWlLk6GJQsqaUBKTNV-1">
          <mxGeometry x="344.5" y="1380" width="149" height="100" as="geometry" />
        </mxCell>
        <mxCell id="8xc5v8LuwtwjrPXEEQ5e-30" style="edgeStyle=orthogonalEdgeStyle;rounded=0;orthogonalLoop=1;jettySize=auto;html=1;exitX=0.5;exitY=1;exitDx=0;exitDy=0;entryX=0.5;entryY=0;entryDx=0;entryDy=0;entryPerimeter=0;fontFamily=Georgia;fontSize=18;" edge="1" parent="WIyWlLk6GJQsqaUBKTNV-1" source="8xc5v8LuwtwjrPXEEQ5e-29" target="8xc5v8LuwtwjrPXEEQ5e-27">
          <mxGeometry relative="1" as="geometry" />
        </mxCell>
        <mxCell id="8xc5v8LuwtwjrPXEEQ5e-29" value="Message&amp;nbsp;&lt;br&gt;eg: MT2002" style="shape=parallelogram;perimeter=parallelogramPerimeter;whiteSpace=wrap;html=1;fixedSize=1;fontFamily=Georgia;fontSize=18;" vertex="1" parent="WIyWlLk6GJQsqaUBKTNV-1">
          <mxGeometry x="319" y="1130" width="200" height="80" as="geometry" />
        </mxCell>
        <mxCell id="8xc5v8LuwtwjrPXEEQ5e-33" value="AWS Hosted" style="text;html=1;strokeColor=none;fillColor=none;align=center;verticalAlign=middle;whiteSpace=wrap;rounded=0;fontFamily=Georgia;fontSize=18;" vertex="1" parent="WIyWlLk6GJQsqaUBKTNV-1">
          <mxGeometry x="354" y="1344" width="129" height="30" as="geometry" />
        </mxCell>
        <mxCell id="8xc5v8LuwtwjrPXEEQ5e-34" value="Messages Definition" style="whiteSpace=wrap;html=1;aspect=fixed;fontFamily=Georgia;fontSize=18;" vertex="1" parent="WIyWlLk6GJQsqaUBKTNV-1">
          <mxGeometry x="44.5" y="1324.5" width="151" height="151" as="geometry" />
        </mxCell>
        <mxCell id="8xc5v8LuwtwjrPXEEQ5e-35" value="" style="endArrow=classic;html=1;rounded=0;fontFamily=Georgia;fontSize=18;entryX=0;entryY=0;entryDx=0;entryDy=127.5;entryPerimeter=0;exitX=1;exitY=0.75;exitDx=0;exitDy=0;" edge="1" parent="WIyWlLk6GJQsqaUBKTNV-1" source="8xc5v8LuwtwjrPXEEQ5e-34" target="8xc5v8LuwtwjrPXEEQ5e-27">
          <mxGeometry width="50" height="50" relative="1" as="geometry">
            <mxPoint x="200" y="1440" as="sourcePoint" />
            <mxPoint x="250" y="1390" as="targetPoint" />
          </mxGeometry>
        </mxCell>
        <mxCell id="8xc5v8LuwtwjrPXEEQ5e-36" value="" style="endArrow=classic;html=1;rounded=0;fontFamily=Georgia;fontSize=18;entryX=1.01;entryY=0.328;entryDx=0;entryDy=0;entryPerimeter=0;exitX=-0.005;exitY=0.344;exitDx=0;exitDy=0;exitPerimeter=0;" edge="1" parent="WIyWlLk6GJQsqaUBKTNV-1" source="8xc5v8LuwtwjrPXEEQ5e-27" target="8xc5v8LuwtwjrPXEEQ5e-34">
          <mxGeometry width="50" height="50" relative="1" as="geometry">
            <mxPoint x="220" y="1424" as="sourcePoint" />
            <mxPoint x="270" y="1374" as="targetPoint" />
          </mxGeometry>
        </mxCell>
        <mxCell id="8xc5v8LuwtwjrPXEEQ5e-37" value="Message" style="text;html=1;align=center;verticalAlign=middle;resizable=0;points=[];autosize=1;strokeColor=none;fillColor=none;fontSize=18;fontFamily=Georgia;" vertex="1" parent="WIyWlLk6GJQsqaUBKTNV-1">
          <mxGeometry x="205" y="1340" width="90" height="40" as="geometry" />
        </mxCell>
        <mxCell id="8xc5v8LuwtwjrPXEEQ5e-38" value="Definition" style="text;html=1;align=center;verticalAlign=middle;resizable=0;points=[];autosize=1;strokeColor=none;fillColor=none;fontSize=18;fontFamily=Georgia;" vertex="1" parent="WIyWlLk6GJQsqaUBKTNV-1">
          <mxGeometry x="200" y="1400" width="100" height="40" as="geometry" />
        </mxCell>
      </root>
    </mxGraphModel>
  </diagram>
</mxfile>
